<?xml version="1.0" encoding="utf-8"?>
<!-- Generator: Adobe Illustrator 27.5.0, SVG Export Plug-In . SVG Version: 6.00 Build 0)  -->
<svg version="1.1" xmlns="http://www.w3.org/2000/svg" xmlns:xlink="http://www.w3.org/1999/xlink" x="0px" y="0px"
	 viewBox="0 0 2200 2200" style="enable-background:new 0 0 2200 2200;" xml:space="preserve">
<g id="background">
	<rect style="fill:#FFFFFF;" width="2200" height="2200"/>
</g>
<g id="Objects">
	<g>
		<g>
			<path style="fill:#D8E4E5;" d="M1998.282,961.995c0,177.142-127.658,324.463-295.999,355.001
				c-9.354,157.529-140.042,282.409-299.922,282.409c-77.771,0-148.628-29.545-201.985-78.023
				c-48.315,69.914-129.028,115.74-220.441,115.74c-107.643,0-200.426-63.515-242.983-155.115
				c-28.514,14.76-60.887,23.108-95.209,23.108c-108.51,0-197.547-83.316-206.662-189.463
				c-133.529-29.758-233.365-148.917-233.365-291.423c0-164.909,133.68-298.589,298.589-298.589c16.57,0,32.826,1.37,48.654,3.973
				c27.998-97.409,117.751-168.668,224.162-168.668c15.828,0,31.28,1.584,46.215,4.589
				c32.864-172.993,184.849-303.807,367.409-303.807c197.76,0,359.652,153.494,373.092,347.847
				c25.006-5.482,50.968-8.398,77.621-8.398C1836.742,601.174,1998.282,762.714,1998.282,961.995z"/>
			<path style="fill:#B8D3D3;" d="M1998.282,961.999c0,177.139-127.655,324.455-295.997,355.001
				c-9.361,157.527-140.043,282.402-299.925,282.402c-77.774,0-148.632-29.546-201.986-78.022
				c-48.317,69.918-129.03,115.741-220.439,115.741c-107.647,0-200.422-63.516-242.98-155.113
				c-28.517,14.753-60.893,23.105-95.209,23.105c-108.508,0-197.552-83.315-206.666-189.458
				c-133.522-29.764-233.362-148.919-233.362-291.426c0-6.263,0.188-12.487,0.574-18.652
				c16.663,48.752,50.256,113.277,117.829,169.134c73.341,60.616,162.208,55.243,162.208,55.243s3.354,129.109,149.047,161.327
				c48.713,10.766,143.793-11.399,172.439-39.728c30.16,70.739,100.384,122.717,176.842,130.91
				c76.468,8.193,156.103-27.736,200.571-90.479c75.726,63.169,188.271,78.398,278.068,37.611
				c89.797-40.777,152.382-135.551,154.638-234.144c113.307,1.494,225.674-57.292,289.071-151.214
				c49.168-72.837,67.711-165.077,53.146-251.579C1983.044,843.151,1998.282,900.799,1998.282,961.999z"/>
			<g>
				<path style="fill:#B8D3D3;" d="M1255.781,1356.409c-51.301,22.234-109.635,27.948-164.278,16.107
					c-4.888-1.059-9.7,2.053-10.646,6.964l0,0c-0.641,3.325,0.658,6.728,3.371,8.754c11.065,8.262,43.469,27.288,100.457,20.409
					c46.98-5.671,72.611-25.646,82.313-35.045c2.835-2.746,3.484-7.042,1.621-10.521l-1.47-2.746
					C1264.965,1356.254,1260.025,1354.57,1255.781,1356.409z"/>
			</g>
			<g>
				<path style="fill:#B8D3D3;" d="M1654.429,1104.93c-28.208,58.528-73.942,111.064-128.778,147.96
					c-4.905,3.301-6.835,9.526-4.214,13.829l0,0c1.775,2.913,5.257,4.272,8.983,3.47c15.196-3.271,56.093-16.554,99.864-68.806
					c36.085-43.077,43.991-78.668,45.701-93.457c0.5-4.321-1.945-7.937-5.961-8.882l-3.169-0.746
					C1662.148,1097.193,1656.762,1100.089,1654.429,1104.93z"/>
			</g>
			<g>
				<path style="fill:#B8D3D3;" d="M888.663,1358.236c-12.398,5.373-43.419,15.04-89.391,3.79
					c-55.748-13.645-79.367-42.875-86.808-54.511c-0.93-1.445-1.395-3.097-1.395-4.74c0-1.613,0.445-3.216,1.316-4.641
					c2.622-4.255,8.223-5.472,12.418-2.761c46.971,30.338,103.57,45.556,159.417,42.825c4.621-0.228,8.648,3.087,9.252,7.679
					l0.416,3.087C894.402,1352.873,892.285,1356.663,888.663,1358.236z"/>
			</g>
			<g>
				<path style="fill:#B8D3D3;" d="M1042.156,1099.191c-1.009,33.291-10.572,65.547-23.237,96.53
					c-2.113,5.17-7.821,7.881-13.177,6.298c-0.071-0.021-0.142-0.042-0.213-0.063c-6.031-1.782-9.361-8.304-7.151-14.192
					c17.547-46.762,10.187-102.405-19.668-142.57c-27.498-37.001-73.065-59.514-119.028-60.24
					c-6.004-0.095-10.802-5.016-10.733-11.021c0.002-0.192,0.004-0.385,0.007-0.577c0.059-5.136,3.698-9.522,8.729-10.563
					c12.754-2.64,25.625-4.553,38.66-5.288c34.711-1.959,71.174,5.225,98.445,26.805
					C1028.481,1010.968,1043.443,1056.237,1042.156,1099.191z"/>
			</g>
			<g>
				<path style="fill:#B8D3D3;" d="M1518.584,923.815c-0.109,0.158-0.208,0.326-0.317,0.485c-3.196,5.086-9.905,6.61-14.991,3.424
					c-38.986-24.361-89.47-30.209-132.661-14.09c-46.882,17.504-83.296,60.221-93.962,109.013
					c-1.346,6.145-7.688,9.816-13.714,8.035c-0.069-0.02-0.138-0.04-0.218-0.069c-5.353-1.573-8.668-6.956-7.639-12.438
					c6.204-32.901,15.693-65.168,32.93-93.666c22.254-36.77,59.409-66.642,102.185-70.719c34.612-3.305,69.126,10.469,97.208,30.971
					c10.548,7.698,20.314,16.297,29.586,25.44C1520.652,913.811,1521.325,919.471,1518.584,923.815z"/>
			</g>
			<g>
				<path style="fill:#B8D3D3;" d="M1388.19,713.092c-59.726,28.092-129.792,34.563-193.219,15.911
					c-62.11-18.276-116.533-60.26-151.63-114.534c-4.146-6.412,4.245-13.477,9.806-8.262
					c37.808,35.434,83.167,62.823,132.276,79.377c54.165,18.246,132.889,23.51,199.165,15.288
					C1391.861,699.972,1394.82,709.975,1388.19,713.092z"/>
			</g>
			<g>
				<path style="fill:#B8D3D3;" d="M677.995,876.317c18.843,50.552,19.375,108.065-0.109,158.471
					c-19.089,49.358-56.97,90.85-103.555,115.769c-5.504,2.944-10.691-4.37-6.067-8.547c31.422-28.402,56.801-63.497,73.608-102.381
					c18.527-42.888,28.141-106.66,25.926-161.204C667.556,872.44,675.905,870.706,677.995,876.317z"/>
			</g>
		</g>
		<ellipse style="fill:#DAE5E5;" cx="1151.201" cy="1883.994" rx="684.443" ry="54.282"/>
	</g>
</g>
</svg>
